<?xml version="1.0" encoding="UTF-8" standalone="no"?>
<!DOCTYPE svg PUBLIC "-//W3C//DTD SVG 1.1//EN" "http://www.w3.org/Graphics/SVG/1.1/DTD/svg11.dtd">
<svg width="100%" height="100%" viewBox="0 0 654 180" version="1.1" xmlns="http://www.w3.org/2000/svg" xmlns:xlink="http://www.w3.org/1999/xlink" xml:space="preserve" xmlns:serif="http://www.serif.com/" style="fill-rule:evenodd;clip-rule:evenodd;stroke-linejoin:round;stroke-miterlimit:2;">
    <g id="Layer-1" serif:id="Layer 1">
        <g transform="matrix(1,0,0,1,92.2051,108.215)">
            <path d="M0,-25.172C2.424,-28.594 4.039,-32.155 4.827,-35.829C5.613,-39.513 6.009,-42.823 6.009,-45.743C6.009,-49.818 5.518,-53.96 4.541,-58.17C3.601,-62.391 1.945,-66.066 -0.43,-69.213C-2.926,-72.568 -6.207,-75.17 -10.28,-77.029C-14.355,-78.889 -19.427,-79.814 -25.5,-79.814L-40.619,-79.814L-40.619,-12.631L-29.681,-12.631C-21.969,-12.631 -15.688,-13.831 -10.88,-16.228C-6.048,-18.623 -2.426,-21.603 0,-25.172M32.565,-51.095C32.565,-43.176 31.016,-36.16 27.915,-30.055C24.795,-23.941 20.497,-18.885 15.014,-14.88C9.584,-10.886 3.617,-7.956 -2.892,-6.094C-9.396,-4.236 -16.289,-3.312 -23.575,-3.312L-40.619,-3.312L-40.619,42.764C-40.619,45.26 -40.191,47.461 -39.372,49.357C-38.56,51.239 -36.867,52.691 -34.282,53.691C-32.996,54.193 -30.728,54.649 -27.48,55.084C-24.235,55.505 -21.25,55.756 -18.536,55.835L-18.536,63.438L-83.792,63.438L-83.792,55.835C-82.071,55.691 -79.6,55.438 -76.343,55.084C-73.098,54.719 -70.826,54.261 -69.544,53.691C-67.392,52.755 -65.833,51.411 -64.871,49.606C-63.912,47.828 -63.433,45.544 -63.433,42.764L-63.433,-66.954C-63.433,-69.465 -63.791,-71.701 -64.505,-73.71C-65.219,-75.706 -66.892,-77.201 -69.544,-78.204C-72.245,-79.141 -74.938,-79.803 -77.627,-80.19C-80.314,-80.578 -82.599,-80.851 -84.546,-80.987L-84.546,-88.61L-15.095,-88.61C-0.963,-88.61 10.51,-85.188 19.345,-78.376C28.162,-71.553 32.565,-62.46 32.565,-51.095" style="fill:rgb(240,235,231);fill-rule:nonzero;"/>
        </g>
        <g transform="matrix(1,0,0,1,187.617,124.19)">
            <path d="M0,-11.038C-6.062,-9.247 -11.396,-7.5 -15.956,-5.776C-20.536,-4.066 -24.774,-1.91 -28.718,0.67C-32.281,3.101 -35.105,5.977 -37.19,9.308C-39.249,12.639 -40.286,16.586 -40.286,21.176C-40.286,27.117 -38.728,31.486 -35.629,34.269C-32.512,37.069 -28.562,38.458 -23.772,38.458C-18.703,38.458 -14.246,37.236 -10.391,34.747C-6.53,32.286 -3.289,29.364 -0.63,26.01L0,-11.038ZM37.409,45.532C34.038,46.753 31.1,47.733 28.555,48.488C26.033,49.24 23.142,49.608 19.937,49.608C14.36,49.608 9.917,48.305 6.598,45.691C3.278,43.094 1.14,39.279 0.224,34.287L-0.418,34.287C-5.06,39.428 -10.042,43.355 -15.379,46.067C-20.692,48.784 -27.103,50.145 -34.608,50.145C-42.538,50.145 -49.044,47.712 -54.153,42.85C-59.269,37.99 -61.827,31.647 -61.827,23.795C-61.827,19.713 -61.246,16.072 -60.115,12.866C-58.968,9.638 -57.247,6.751 -54.965,4.171C-53.174,2.026 -50.817,0.121 -47.893,-1.557C-44.962,-3.245 -42.215,-4.569 -39.644,-5.571C-36.436,-6.781 -29.916,-9.04 -20.085,-12.327C-10.261,-15.611 -3.629,-18.18 -0.209,-20.038L-0.209,-30.649C-0.209,-31.574 -0.416,-33.366 -0.798,-36.001C-1.188,-38.638 -2.028,-41.147 -3.319,-43.498C-4.743,-46.145 -6.765,-48.45 -9.37,-50.413C-11.985,-52.375 -15.669,-53.367 -20.459,-53.367C-23.753,-53.367 -26.806,-52.808 -29.616,-51.7C-32.454,-50.595 -34.415,-49.431 -35.564,-48.221C-35.564,-46.784 -35.227,-44.685 -34.545,-41.901C-33.877,-39.117 -33.523,-36.537 -33.523,-34.188C-33.523,-31.677 -34.654,-29.394 -36.908,-27.319C-39.16,-25.254 -42.282,-24.217 -46.29,-24.217C-49.854,-24.217 -52.476,-25.493 -54.153,-28.024C-55.83,-30.559 -56.67,-33.389 -56.67,-36.537C-56.67,-39.823 -55.512,-42.972 -53.183,-45.962C-50.875,-48.974 -47.851,-51.656 -44.136,-54.005C-40.921,-56.004 -37.034,-57.703 -32.454,-59.084C-27.89,-60.488 -23.423,-61.183 -19.063,-61.183C-13.069,-61.183 -7.833,-60.771 -3.368,-59.949C1.094,-59.128 5.144,-57.361 8.791,-54.644C12.438,-52.01 15.205,-48.404 17.101,-43.884C18.999,-39.344 19.937,-33.503 19.937,-26.361C19.937,-16.138 19.832,-7.088 19.62,0.796C19.401,8.689 19.29,17.316 19.29,26.671C19.29,29.469 19.776,31.672 20.746,33.31C21.697,34.957 23.179,36.371 25.185,37.487C26.259,38.139 27.946,38.493 30.276,38.563C32.594,38.64 34.966,38.674 37.409,38.674L37.409,45.532Z" style="fill:rgb(240,235,231);fill-rule:nonzero;"/>
        </g>
        <g transform="matrix(1,0,0,1,303.679,29.2602)">
            <path d="M0,121.921L0,60.103C-0.577,58.254 -1.505,56.247 -2.782,54.113C-4.069,51.958 -5.669,49.994 -7.598,48.215C-9.67,46.435 -12.095,44.952 -14.872,43.765C-17.659,42.591 -20.885,41.996 -24.605,41.996C-28.89,41.996 -32.829,43.103 -36.425,45.315C-40.028,47.53 -43.208,50.724 -45.995,54.855C-48.643,58.86 -50.713,63.948 -52.25,70.12C-53.786,76.304 -54.546,83.151 -54.546,90.638C-54.546,96.637 -53.974,102.092 -52.844,106.975C-51.692,111.881 -49.764,116.422 -47.049,120.642C-44.574,124.652 -41.368,127.854 -37.481,130.273C-33.601,132.715 -29,133.92 -23.642,133.92C-17.945,133.92 -13.209,132.669 -9.463,130.182C-5.725,127.672 -2.585,124.932 0,121.921M38.781,140.462L1.819,142.82L0.209,141.317L0.209,131.459L-0.645,131.259C-4.355,135.396 -8.936,138.787 -14.407,141.434C-19.859,144.067 -25.475,145.394 -31.258,145.394C-37.232,145.394 -43.041,144.058 -48.643,141.376C-54.239,138.693 -59.097,134.93 -63.254,130.067C-67.455,125.139 -70.784,119.204 -73.245,112.293C-75.708,105.354 -76.944,97.71 -76.944,89.358C-76.944,81.714 -75.62,74.458 -72.984,67.61C-70.342,60.742 -66.704,54.741 -62.063,49.606C-57.72,44.815 -52.381,41.004 -46.065,38.141C-39.754,35.287 -33.317,33.85 -26.762,33.85C-21.832,33.85 -17.012,34.478 -12.267,35.732C-7.514,36.977 -3.429,38.563 0,40.502L0,3.671C0,0.659 -0.5,-2.069 -1.505,-4.544C-2.506,-7.009 -3.913,-8.88 -5.683,-10.182C-7.686,-11.539 -10.385,-12.519 -13.767,-13.125C-17.18,-13.741 -20.832,-14.173 -24.761,-14.47L-24.761,-21.111L18.519,-23.473L20.131,-21.863L20.131,120.542C20.131,123.038 20.61,125.164 21.574,126.921C22.539,128.665 23.96,130.148 25.828,131.357C27.178,132.225 29.127,132.748 31.714,132.964C34.277,133.174 36.632,133.309 38.781,133.388L38.781,140.462Z" style="fill:rgb(240,235,231);fill-rule:nonzero;"/>
        </g>
        <g transform="matrix(1,0,0,1,414.146,130.93)">
            <path d="M0,-24.418C0,-28.412 -0.335,-32.689 -1.009,-37.242C-1.693,-41.793 -2.786,-45.605 -4.28,-48.662C-5.927,-51.938 -8.179,-54.618 -11.026,-56.674C-13.896,-58.75 -17.567,-59.777 -22.076,-59.777C-29.576,-59.777 -35.801,-56.674 -40.765,-50.431C-45.729,-44.214 -48.428,-35.53 -48.855,-24.418L0,-24.418ZM23.682,15.871C19.257,24.292 13.32,30.999 5.899,36.017C-1.54,41.007 -10.067,43.505 -19.712,43.505C-28.217,43.505 -35.656,42.009 -42.054,39.011C-48.451,36.017 -53.708,31.934 -57.863,26.802C-61.999,21.645 -65.093,15.652 -67.131,8.797C-69.159,1.93 -70.179,-5.305 -70.179,-12.951C-70.179,-19.821 -69.085,-26.549 -66.912,-33.16C-64.735,-39.764 -61.534,-45.708 -57.318,-50.991C-53.253,-56.056 -48.2,-60.164 -42.151,-63.268C-36.131,-66.371 -29.353,-67.923 -21.848,-67.923C-14.147,-67.923 -7.532,-66.713 -2.042,-64.284C3.467,-61.853 7.937,-58.534 11.362,-54.31C14.66,-50.306 17.099,-45.605 18.689,-40.173C20.318,-34.741 21.1,-28.856 21.1,-22.489L21.1,-15.415L-48.855,-15.415C-48.855,-8.478 -48.2,-2.179 -46.874,3.479C-45.539,9.142 -43.464,14.114 -40.611,18.399C-37.824,22.557 -34.177,25.83 -29.678,28.239C-25.175,30.634 -19.814,31.822 -13.599,31.822C-7.258,31.822 -1.754,30.336 2.829,27.37C7.458,24.381 11.896,19.019 16.182,11.263L23.682,15.871Z" style="fill:rgb(240,235,231);fill-rule:nonzero;"/>
        </g>
        <g transform="matrix(1,0,0,1,490.769,5.7878)">
            <path d="M0,165.865L-51.536,165.865L-51.536,158.788C-49.908,158.653 -48.149,158.495 -46.283,158.309C-44.441,158.126 -42.896,157.865 -41.682,157.511C-39.682,156.86 -38.188,155.731 -37.174,154.134C-36.183,152.528 -35.685,150.434 -35.685,147.859L-35.685,25.408C-35.685,22.83 -36.234,20.422 -37.341,18.176C-38.453,15.916 -39.896,14.148 -41.682,12.858C-42.957,12.003 -45.325,11.216 -48.759,10.508C-52.178,9.789 -54.923,9.366 -57.003,9.219L-57.003,2.361L-17.247,0L-15.744,1.61L-15.744,146.58C-15.744,149.083 -15.279,151.133 -14.367,152.742C-13.432,154.352 -11.92,155.569 -9.854,156.436C-8.281,157.146 -6.741,157.681 -5.187,158.049C-3.647,158.402 -1.936,158.653 0,158.788L0,165.865Z" style="fill:rgb(240,235,231);fill-rule:nonzero;"/>
        </g>
        <g transform="matrix(1,0,0,1,570.867,143.273)">
            <path d="M0,-95.167C0,-102.445 -1.601,-108.036 -4.811,-111.917C-8.012,-115.818 -12.58,-117.782 -18.479,-117.782C-21.839,-117.782 -24.606,-117.086 -26.821,-115.727C-29.018,-114.382 -30.906,-112.658 -32.483,-110.594C-33.902,-108.596 -34.936,-106.439 -35.573,-104.158C-36.215,-101.876 -36.536,-99.844 -36.536,-98.054C-36.536,-93.125 -35.247,-88.138 -32.679,-83.106C-30.12,-78.075 -26.109,-71.981 -20.703,-64.84C-13.366,-68.98 -8.091,-73.464 -4.848,-78.281C-1.614,-83.106 0,-88.731 0,-95.167M8.365,3.961C1.717,-4.483 -5.787,-13.7 -14.092,-23.742C-22.416,-33.783 -29.083,-42.271 -34.061,-49.187C-39.854,-45.19 -43.942,-40.492 -46.339,-35.106C-48.73,-29.698 -49.921,-23.547 -49.921,-16.619C-49.921,-6.9 -47.167,1.142 -41.626,7.546C-36.104,13.934 -28.683,17.128 -19.392,17.128C-14.171,17.128 -9.054,16.009 -4.015,13.747C1.01,11.515 5.132,8.228 8.365,3.961M75.762,-60.345C71.552,-59.98 67.29,-59.146 63,-57.822C58.725,-56.487 55.436,-54.412 53.151,-51.559C51.639,-49.835 50.127,-47.303 48.592,-43.939C47.07,-40.594 45.228,-36.611 43.092,-32.047C40.961,-27.483 38.774,-22.989 36.569,-18.551C34.35,-14.121 31.507,-9.696 28.014,-5.268C30.87,-1.834 34.368,1.907 38.505,5.932C42.632,9.963 46.177,12.882 49.094,14.664C51.96,16.302 55.998,17.697 61.246,18.842C66.48,19.982 70.798,20.633 74.147,20.777L74.147,28.38L30.009,28.38L14.032,10.17C11.678,12.747 8.989,15.395 5.937,18.153C2.913,20.894 -0.283,23.28 -3.643,25.276C-7.36,27.421 -11.096,29.107 -14.841,30.317C-18.587,31.529 -22.992,32.13 -28.078,32.13C-33.367,32.13 -38.611,31.369 -43.826,29.838C-49.033,28.287 -53.792,25.844 -58.077,22.489C-62.223,19.203 -65.572,14.985 -68.15,9.849C-70.704,4.712 -71.998,-1.438 -71.998,-8.589C-71.998,-17.443 -69.662,-25.455 -64.973,-32.643C-60.311,-39.817 -51.573,-47.452 -38.788,-55.507C-44.566,-63.151 -49.074,-69.769 -52.285,-75.337C-55.5,-80.905 -57.104,-87.158 -57.104,-94.094C-57.104,-99.023 -56.123,-103.529 -54.164,-107.65C-52.196,-111.757 -49.428,-115.339 -45.851,-118.42C-42.57,-121.193 -38.564,-123.372 -33.847,-124.946C-29.152,-126.52 -24.351,-127.297 -19.503,-127.297C-13.79,-127.297 -8.765,-126.383 -4.442,-124.581C-0.121,-122.754 3.396,-120.383 6.091,-117.439C8.603,-114.722 10.524,-111.585 11.846,-108.025C13.162,-104.443 13.818,-100.871 13.818,-97.289C13.818,-88.731 11.166,-81.361 5.867,-75.178C0.568,-68.993 -6.765,-63.448 -16.088,-58.519C-9.375,-49.437 -2.819,-41.176 3.615,-33.713C10.021,-26.253 16.2,-18.904 22.109,-11.692C26.892,-19.337 30.604,-26.524 33.233,-33.28C35.867,-40.036 37.184,-45.979 37.184,-51.125C37.184,-53.407 35.522,-55.21 32.21,-56.534C28.879,-57.857 24.282,-59.112 18.438,-60.345L18.438,-67.943L75.762,-67.943L75.762,-60.345Z" style="fill:rgb(240,235,231);fill-rule:nonzero;"/>
        </g>
    </g>
</svg>
