<svg width="18" height="18" viewBox="0 0 18 18" fill="none" xmlns="http://www.w3.org/2000/svg">
    <g clip-path="url(#clip0_18_27)">
        <path d="M17.9952 6.31133C17.9331 4.75201 17.2255 3.21983 16.0028 1.99703C14.78 0.774258 13.2478 0.0666681 11.6885 0.00461731C10.0258 -0.0615467 8.46603 0.584449 7.17773 1.87275C5.887 3.16348 5.02596 4.95929 4.81541 6.79972C4.70874 7.73203 4.7729 8.61965 5.00613 9.43788C5.01186 9.45799 5.01819 9.47768 5.02409 9.49765C4.80134 10.4658 4.33591 11.3532 3.66752 12.0854C3.52609 12.0802 3.38293 12.131 3.27493 12.239L0.154215 15.3596C-0.0517305 15.5656 -0.0517305 15.8995 0.154215 16.1054L1.89438 17.8455C2.10032 18.0515 2.4342 18.0515 2.64015 17.8455L5.76086 14.7248C5.86886 14.6168 5.91963 14.4737 5.91439 14.3322C6.64659 13.6638 7.534 13.1984 8.50217 12.9757C8.52214 12.9816 8.54183 12.9879 8.56194 12.9936C9.38016 13.2268 10.2678 13.291 11.2001 13.1843C13.0405 12.9738 14.8363 12.1127 16.1271 10.822C17.4153 9.53379 18.0613 7.97401 17.9952 6.31133ZM7.79961 4.98056C8.00556 4.77462 8.33943 4.77462 8.54538 4.98056C8.75132 5.18651 8.75132 5.52039 8.54538 5.72633C8.33943 5.93228 8.00556 5.93228 7.79961 5.72633C7.59366 5.52042 7.59366 5.18651 7.79961 4.98056ZM7.79961 7.96368C8.00556 7.75773 8.33943 7.75773 8.54538 7.96368C8.75132 8.16962 8.75132 8.5035 8.54538 8.70944C8.33943 8.91539 8.00556 8.91539 7.79961 8.70944C7.59366 8.50353 7.59366 8.16962 7.79961 7.96368ZM5.2723 13.4905L4.5093 12.7275C4.99284 12.1832 5.38329 11.5688 5.66925 10.9056C5.85498 11.1894 6.06774 11.4522 6.30768 11.6922C6.54763 11.9321 6.81045 12.1449 7.09431 12.3306C6.43101 12.6165 5.81662 13.007 5.2723 13.4905ZM10.037 10.201C9.83101 10.407 9.49713 10.407 9.29118 10.201C9.08524 9.99507 9.08524 9.66119 9.29118 9.45525C9.49713 9.2493 9.83101 9.2493 10.037 9.45525C10.2429 9.66116 10.2429 9.99507 10.037 10.201ZM10.037 7.21791C9.83101 7.42385 9.49713 7.42385 9.29118 7.21791C9.08524 7.01196 9.08524 6.67808 9.29118 6.47214C9.49713 6.26619 9.83101 6.26619 10.037 6.47214C10.2429 6.67808 10.2429 7.01196 10.037 7.21791ZM10.037 4.23479C9.83101 4.44074 9.49713 4.44074 9.29118 4.23479C9.08524 4.02885 9.08524 3.69497 9.29118 3.48902C9.49713 3.28308 9.83101 3.28308 10.037 3.48902C10.2429 3.69497 10.2429 4.02885 10.037 4.23479ZM11.5285 8.70944C11.3225 8.91539 10.9887 8.91539 10.7827 8.70944C10.5768 8.5035 10.5768 8.16962 10.7827 7.96368C10.9887 7.75773 11.3225 7.75773 11.5285 7.96368C11.7344 8.16962 11.7344 8.50353 11.5285 8.70944ZM11.5285 5.72637C11.3225 5.93231 10.9887 5.93231 10.7827 5.72637C10.5768 5.52042 10.5768 5.18654 10.7827 4.9806C10.9887 4.77465 11.3225 4.77465 11.5285 4.9806C11.7344 5.18651 11.7344 5.52042 11.5285 5.72637ZM13.0201 10.201C12.8141 10.407 12.4802 10.407 12.2743 10.201C12.0684 9.99507 12.0684 9.66119 12.2743 9.45525C12.4802 9.2493 12.8141 9.2493 13.0201 9.45525C13.226 9.66119 13.226 9.99507 13.0201 10.201ZM13.0201 7.21791C12.8141 7.42385 12.4802 7.42385 12.2743 7.21791C12.0684 7.01196 12.0684 6.67808 12.2743 6.47214C12.4802 6.26619 12.8141 6.26619 13.0201 6.47214C13.226 6.67808 13.226 7.01196 13.0201 7.21791ZM13.0201 4.23479C12.8141 4.44074 12.4802 4.44074 12.2743 4.23479C12.0684 4.02885 12.0684 3.69497 12.2743 3.48902C12.4802 3.28308 12.8141 3.28308 13.0201 3.48902C13.226 3.69497 13.226 4.02885 13.0201 4.23479ZM14.5116 8.70944C14.3057 8.91539 13.9718 8.91539 13.7658 8.70944C13.5599 8.5035 13.5599 8.16962 13.7658 7.96368C13.9718 7.75773 14.3057 7.75773 14.5116 7.96368C14.7176 8.16962 14.7176 8.50353 14.5116 8.70944ZM14.5116 5.72637C14.3057 5.93231 13.9718 5.93231 13.7658 5.72637C13.5599 5.52042 13.5599 5.18654 13.7658 4.9806C13.9718 4.77465 14.3057 4.77465 14.5116 4.9806C14.7176 5.18651 14.7176 5.52042 14.5116 5.72637Z" fill="black"/>
    </g>
    <defs>
        <clipPath id="clip0_18_27">
            <rect width="18" height="18" fill="white"/>
        </clipPath>
    </defs>
</svg>
