<svg width="58" height="58" viewBox="0 0 58 58" fill="none" xmlns="http://www.w3.org/2000/svg">
    <g clip-path="url(#clip0_69_996)">
        <path d="M53.4044 32.1853C56.6503 31.0655 58.4926 27.905 57.8849 24.4997C57.2902 21.1669 54.5617 18.8727 51.2204 18.8727C51.1695 18.8727 51.1179 18.8733 51.0668 18.8744C50.0078 18.8944 49.4741 18.1758 49.2933 17.8647C48.9007 17.1893 48.9055 16.386 49.306 15.7158C51.0872 12.7358 50.4683 9.11007 47.801 6.89866C45.1796 4.72528 41.5671 4.78633 39.0161 7.047C38.2175 7.75462 37.3604 7.55249 37.0291 7.43264C36.6873 7.30916 35.8742 6.90263 35.7052 5.79858C35.1827 2.38551 32.4252 0.00170898 28.9996 0.00170898C28.9993 0.00170898 28.9998 0.00170898 28.9996 0.00170898C25.5748 0.00170898 22.8174 2.38562 22.2949 5.79869C22.1259 6.90263 21.3126 7.30928 20.9709 7.43276C20.6392 7.55238 19.7826 7.75462 18.9838 7.047C16.4327 4.78633 12.8198 4.72562 10.1978 6.89957C7.53106 9.11041 6.91275 12.7358 8.69402 15.7159C9.09454 16.3861 9.09908 17.1898 8.70605 17.8659C8.52548 18.1765 7.99048 18.8956 6.93329 18.8744C3.52068 18.7991 0.719 21.1162 0.115105 24.5001C-0.492535 27.9053 1.34991 31.0656 4.59557 32.1853C5.61474 32.537 5.87429 33.4162 5.93842 33.778C6.00379 34.1464 6.06349 35.0787 5.20707 35.7764C2.52648 37.9599 1.87651 41.5766 3.62646 44.5715C5.3503 47.5219 8.76575 48.7146 11.9324 47.4716C12.9137 47.0865 13.6514 47.5717 13.923 47.798C14.2078 48.0356 14.8473 48.7077 14.6306 49.8168C13.9655 53.2221 15.7661 56.4151 19.0093 57.5813C22.2178 58.7353 25.6016 57.437 27.2381 54.4241C27.7593 53.4645 28.6434 53.3609 28.9993 53.3609C29.3558 53.3609 30.2408 53.4645 30.7621 54.4241C31.9991 56.7014 34.2336 57.9993 36.6366 57.9991C37.4128 57.9991 38.207 57.8636 38.9901 57.5819C42.2337 56.4154 44.0346 53.2223 43.3696 49.8167C43.153 48.7077 43.7924 48.0355 44.0774 47.7979C44.349 47.5714 45.0867 47.0864 46.0677 47.4715C49.2344 48.7145 52.6496 47.5225 54.3733 44.5727C56.1237 41.5773 55.4739 37.96 52.7931 35.7763C51.9366 35.0787 51.9962 34.1472 52.0614 33.7792C52.1256 33.4171 52.3852 32.5369 53.4044 32.1853ZM22.9471 19.3522C24.9288 19.3522 26.541 20.9645 26.541 22.9462C26.541 24.9279 24.9288 26.5402 22.9471 26.5402C20.9654 26.5402 19.3531 24.9279 19.3531 22.9462C19.3531 20.9645 20.9654 19.3522 22.9471 19.3522ZM23.4217 37.9479C22.9563 38.4133 22.3463 38.646 21.7364 38.646C21.1265 38.646 20.5164 38.4133 20.051 37.9479C19.1204 37.0171 19.1204 35.508 20.051 34.5774L34.5781 20.0503C35.5088 19.1196 37.0179 19.1196 37.9487 20.0503C38.8793 20.9811 38.8793 22.4902 37.9487 23.4208L23.4217 37.9479ZM35.0529 38.646C33.0712 38.646 31.4591 37.0337 31.4591 35.052C31.4591 33.0703 33.0712 31.458 35.0529 31.458C37.0346 31.458 38.6469 33.0703 38.6469 35.052C38.6469 37.0338 37.0346 38.646 35.0529 38.646Z" fill="#F1ECE8"/>
    </g>
    <defs>
        <clipPath id="clip0_69_996">
            <rect width="58" height="58" fill="white"/>
        </clipPath>
    </defs>
</svg>
