<svg width="61" height="61" viewBox="0 0 61 61" fill="none" xmlns="http://www.w3.org/2000/svg">
    <path d="M50.3667 6.94822H45.561V6.6375C45.561 5.69009 44.7928 4.92188 43.8454 4.92188C42.898 4.92188 42.1298 5.69009 42.1298 6.6375V6.94822H32.2173V6.6375C32.2173 5.69009 31.4491 4.92188 30.5017 4.92188C29.5543 4.92188 28.786 5.69009 28.786 6.6375V6.94822H18.8735V6.6375C18.8735 5.69009 18.1053 4.92188 17.1579 4.92188C16.2105 4.92188 15.4423 5.69009 15.4423 6.6375V6.94822H10.6328C5.92438 6.94822 2.09473 10.7779 2.09473 15.4863V47.5418C2.09473 52.2502 5.92438 56.0799 10.6328 56.0799H50.3667C55.0751 56.0799 58.9048 52.2502 58.9048 47.5418V15.4844C58.9029 10.776 55.0751 6.94822 50.3667 6.94822ZM30.4998 44.7129C23.7802 44.7129 18.3112 39.2458 18.3112 32.5263C18.3112 25.8067 23.7783 20.3396 30.4998 20.3396C37.2212 20.3396 42.6883 25.8067 42.6883 32.5263C42.6883 39.2458 37.2193 44.7129 30.4998 44.7129Z" fill="#000"/>
    <path d="M30.4995 23.771C25.6729 23.771 21.7441 27.6998 21.7441 32.5264C21.7441 37.3549 25.6729 41.2818 30.4995 41.2818C35.3262 41.2818 39.255 37.353 39.255 32.5264C39.255 27.6979 35.3262 23.771 30.4995 23.771ZM35.1375 32.0784L30.0249 36.1978C29.7199 36.4457 29.3386 36.5772 28.9498 36.5772C28.885 36.5772 28.8201 36.5734 28.7534 36.5657C28.2997 36.5143 27.8823 36.2817 27.6001 35.9214L25.589 33.3594C25.0038 32.6141 25.1354 31.5352 25.8788 30.9499C26.626 30.3628 27.7012 30.4943 28.2883 31.2397L29.2262 32.4349L32.9853 29.4078C33.723 28.8111 34.8058 28.9312 35.3986 29.667C35.9915 30.4047 35.8752 31.4856 35.1375 32.0784Z" fill="#000"/>
</svg>
