<svg width="64" height="64" viewBox="0 0 64 64" fill="none" xmlns="http://www.w3.org/2000/svg">
    <g clip-path="url(#clip0_69_1006)">
        <path d="M31.9998 26.1807C33.2151 26.1807 34.2039 25.192 34.2039 23.9767C34.0931 21.0569 29.9063 21.0576 29.7959 23.9767C29.7959 25.192 30.7847 26.1807 31.9998 26.1807Z" fill="#000"/>
        <path d="M52.9452 17.229C49.7806 14.606 46.1408 12.5987 42.2521 11.3119V6.02399C41.9463 -2.01106 30.4279 -2.00493 30.125 6.02399V9.71347C30.7484 9.67797 31.3737 9.65884 32.0004 9.65997C32.6271 9.65847 33.2523 9.67747 33.8755 9.7126V6.02399C33.9921 2.95884 38.3861 2.96122 38.5016 6.02399V10.3118C38.5045 10.3124 38.5075 10.3131 38.5103 10.3137C38.5047 10.3199 38.5016 10.3199 38.5016 10.3118C36.981 10.0019 35.4349 9.80074 33.8755 9.7126V18.3264C40.1961 20.5334 38.7763 29.797 32.0001 29.931C25.2231 29.7964 23.8054 20.5321 30.125 18.3264V9.71347C23.1541 10.1099 16.4332 12.77 11.0567 17.227C9.35365 18.6388 8.37402 20.7408 8.37402 22.953V60.0449C8.37402 62.2292 10.1448 64 12.329 64H51.6717C53.856 64 55.6267 62.2292 55.6267 60.0449V22.9537C55.6265 20.7422 54.6478 18.6401 52.9452 17.229ZM22.5185 55.765H15.6764C14.9685 55.765 14.3209 55.3665 14.002 54.7344C13.6832 54.1023 13.7475 53.3447 14.1682 52.7754C16.3247 49.8541 19.7499 44.2587 19.7598 41.6824C19.7598 41.1515 19.2449 40.469 18.6662 40.469C18.0875 40.469 17.5726 41.1515 17.5726 41.6894C17.5726 42.725 16.733 43.5647 15.6974 43.5647C11.8429 43.2155 14.4128 36.5616 18.6662 36.7186C21.292 36.7185 23.5103 38.9949 23.5103 41.6894C23.4988 44.7223 21.0804 49.099 19.2237 52.0145H22.5185C25.0038 52.1068 25.0019 55.6736 22.5185 55.765ZM30.2283 55.7793H28.1357C25.6503 55.687 25.6522 52.1202 28.1357 52.0288H30.2283C32.9359 51.9212 32.9339 47.7872 30.2283 47.6807H28.1357C27.1001 47.6807 26.2605 46.8411 26.2605 45.8054V38.8893C26.2605 37.8537 27.1001 37.014 28.1357 37.014H33.1265C35.612 37.1063 35.6101 40.6732 33.1265 40.7645H30.011V43.9302H30.2283C37.9059 44.227 37.9 55.4852 30.2283 55.7793ZM40.5714 36.8562C41.607 36.8562 42.4466 37.6958 42.4466 38.7314C42.3547 41.2162 38.7876 41.2155 38.6961 38.7314C38.6961 37.6958 39.5356 36.8562 40.5714 36.8562ZM40.6915 55.9344C40.4202 55.9344 40.1447 55.8753 39.8836 55.7504C38.9494 55.3034 38.5542 54.1838 39.0012 53.2495L46.0356 38.5431C46.4825 37.6087 47.6023 37.2141 48.5364 37.6606C49.4707 38.1076 49.8658 39.2272 49.4189 40.1615L42.3845 54.8679C42.0626 55.5411 41.3911 55.9344 40.6915 55.9344ZM48.275 55.973C47.2394 55.973 46.3998 55.1334 46.3998 54.0978C46.4916 51.613 50.0587 51.6137 50.1502 54.0978C50.1502 55.1334 49.3106 55.973 48.275 55.973Z" fill="#000"/>
    </g>
    <defs>
        <clipPath id="clip0_69_1006">
            <rect width="64" height="64"/>
        </clipPath>
    </defs>
</svg>
