<svg width="59" height="59" viewBox="0 0 59 59" fill="none" xmlns="http://www.w3.org/2000/svg">
    <g clip-path="url(#clip0_69_1010)">
        <path d="M30.01 8.95116L30.3886 8.57257V17.357C30.3886 18.7437 31.5128 19.8679 32.8995 19.8679C34.2862 19.8679 35.4104 18.7437 35.4104 17.357V8.57335L35.7881 8.95106C36.2784 9.44148 36.9209 9.68664 37.5636 9.68664C38.2062 9.68664 38.8488 9.44148 39.3391 8.95125C40.3196 7.97071 40.3198 6.38089 39.3393 5.40035L34.675 0.735767C34.2044 0.264633 33.5657 0 32.8999 0H32.8997C32.2337 0 31.5951 0.264537 31.1242 0.735381L26.4592 5.39996C25.4785 6.3805 25.4785 7.97033 26.459 8.95087C27.4395 9.93189 29.0293 9.9317 30.01 8.95116Z" fill="#000"/>
        <path d="M17.6291 22.5181C8.60294 22.5181 1.28711 26.5935 1.28711 31.6214C1.28711 36.6486 8.60294 40.7254 17.6291 40.7254C19.2052 40.7254 20.7291 40.6006 22.1713 40.3686C22.1548 40.1707 22.1459 39.9715 22.1459 39.7706C22.1459 35.0637 26.7958 31.1336 33.5348 29.5253C31.8352 25.5081 25.359 22.5181 17.6291 22.5181Z" fill="#000"/>
        <path d="M1.74128 38.8164C1.44772 39.5001 1.28711 40.2119 1.28711 40.9452C1.28711 45.9733 8.60294 50.0486 17.6291 50.0486C19.2052 50.0486 20.7291 49.924 22.1713 49.692C22.1546 49.4944 22.1459 49.2952 22.1459 49.0947C22.1459 48.1194 22.3512 47.1485 22.7561 46.2068L23.1648 45.2554C21.4362 45.6024 19.5725 45.7918 17.6291 45.7918C9.91965 45.7922 3.46192 42.8173 1.74128 38.8164Z" fill="#000"/>
        <path d="M25.0303 40.5716C25.0303 45.5993 32.3458 49.6759 41.371 49.6759C50.3968 49.6759 57.7123 45.5993 57.7123 40.5716C57.7123 35.544 50.3968 31.4683 41.371 31.4683C32.3458 31.4681 25.0303 35.544 25.0303 40.5716Z" fill="#000"/>
        <path d="M41.3711 54.7423C33.6624 54.7423 27.2048 51.7674 25.4829 47.7668C25.1895 48.4503 25.0303 49.1619 25.0303 49.8955C25.0303 54.9235 32.3458 59.0001 41.371 59.0001C50.3968 59.0001 57.7123 54.9235 57.7123 49.8955C57.7123 49.1619 57.5533 48.4503 57.2587 47.7668C55.5379 51.7673 49.0803 54.7423 41.3711 54.7423Z" fill="#000"/>
    </g>
    <defs>
        <clipPath id="clip0_69_1010">
            <rect width="59" height="59" fill="white"/>
        </clipPath>
    </defs>
</svg>
