<svg width="55" height="55" viewBox="0 0 55 55" fill="none" xmlns="http://www.w3.org/2000/svg">
    <g clip-path="url(#clip0_69_1018)">
        <path d="M54.0815 21.1125L28.8749 2.78048C27.9584 2.09303 27.0417 2.09303 26.1251 2.78048L0.918537 21.1125C-0.914703 22.2582 0.231086 25.2372 2.29344 25.2372H6.87649V50.4438C6.87649 51.8187 7.79305 52.7352 9.16796 52.7352H45.832C47.2069 52.7352 48.1235 51.8187 48.1235 50.4438V25.2372H52.7065C54.769 25.2372 55.9147 22.2582 54.0815 21.1125ZM27.5 48.1523C19.9381 48.1523 13.751 41.9652 13.751 34.4033C13.751 26.8413 19.9381 20.6542 27.5 20.6542C35.062 20.6542 41.2491 26.8413 41.2491 34.4033C41.2491 41.9652 35.062 48.1523 27.5 48.1523Z" fill="#000"/>
        <path d="M30.9375 30.9658V24.0913H24.063V30.9658H17.1885V37.8403H24.063V44.7149H30.9375V37.8403H37.812V30.9658H30.9375Z" fill="#000"/>
    </g>
    <defs>
        <clipPath id="clip0_69_1018">
            <rect width="55" height="55" fill="white"/>
        </clipPath>
    </defs>
</svg>
