<svg width="50" height="50" viewBox="0 0 50 50" fill="none" xmlns="http://www.w3.org/2000/svg">
    <path d="M48 0H2C0.89375 0 0 0.89375 0 2V48C0 49.1063 0.89375 50 2 50H48C49.1063 50 50 49.1063 50 48V2C50 0.89375 49.1063 0 48 0ZM46 44.0618C46 45.1322 45.1322 46 44.0618 46H36.432C35.3615 46 34.4938 45.1322 34.4938 44.0618V32.5757C34.4938 31.5053 35.3615 30.6375 36.432 30.6375H39.2899C40.2643 30.6375 41.0872 29.9141 41.2121 28.9477L41.6861 25.2804C41.836 24.121 40.933 23.0938 39.7639 23.0938H36.432C35.3615 23.0938 34.4938 22.226 34.4938 21.1555V18.275C34.4938 16.0875 35.1 14.6 38.2313 14.6H40.2868C41.3572 14.6 42.225 13.7322 42.225 12.6618V9.5439C42.225 8.57377 41.507 7.76232 40.5393 7.69454C39.454 7.61853 37.9924 7.55 36.4 7.55C30.6375 7.55 26.6937 11.0687 26.6937 17.525V21.1493C26.6937 22.2197 25.826 23.0875 24.7555 23.0875H22.1195C21.049 23.0875 20.1812 23.9553 20.1812 25.0257V28.693C20.1812 29.7635 21.049 30.6312 22.1195 30.6312H24.7618C25.8322 30.6312 26.7 31.499 26.7 32.5695V44.0618C26.7 45.1322 25.8322 46 24.7618 46H5.9382C4.86776 46 4 45.1322 4 44.0618V5.9382C4 4.86776 4.86776 4 5.9382 4H44.0618C45.1322 4 46 4.86776 46 5.9382V44.0618Z" fill="#1F5B5A"/>
</svg>
