<svg width="50" height="50" viewBox="0 0 50 50" fill="none" xmlns="http://www.w3.org/2000/svg">
    <path d="M41.6667 0C43.8768 0 45.9964 0.877974 47.5592 2.44078C49.122 4.00358 50 6.1232 50 8.33333V41.6667C50 43.8768 49.122 45.9964 47.5592 47.5592C45.9964 49.122 43.8768 50 41.6667 50H8.33333C6.1232 50 4.00358 49.122 2.44078 47.5592C0.877974 45.9964 0 43.8768 0 41.6667V8.33333C0 6.1232 0.877974 4.00358 2.44078 2.44078C4.00358 0.877974 6.1232 0 8.33333 0H41.6667ZM41.6667 5.55556H8.33333C7.59662 5.55556 6.89008 5.84821 6.36915 6.36915C5.84821 6.89008 5.55556 7.59662 5.55556 8.33333V41.6667C5.55556 42.4034 5.84821 43.1099 6.36915 43.6309C6.89008 44.1518 7.59662 44.4444 8.33333 44.4444H41.6667C42.4034 44.4444 43.1099 44.1518 43.6309 43.6309C44.1518 43.1099 44.4444 42.4034 44.4444 41.6667V8.33333C44.4444 7.59662 44.1518 6.89008 43.6309 6.36915C43.1099 5.84821 42.4034 5.55556 41.6667 5.55556ZM13.8889 19.4444C14.5693 19.4445 15.2259 19.6943 15.7344 20.1464C16.2428 20.5985 16.5676 21.2215 16.6472 21.8972L16.6667 22.2222V36.1111C16.6659 36.8191 16.3948 37.5001 15.9088 38.0149C15.4227 38.5297 14.7585 38.8395 14.0517 38.881C13.3449 38.9225 12.6489 38.6926 12.106 38.2382C11.5631 37.7837 11.2142 37.1392 11.1306 36.4361L11.1111 36.1111V22.2222C11.1111 21.4855 11.4038 20.779 11.9247 20.258C12.4456 19.7371 13.1522 19.4444 13.8889 19.4444ZM22.2222 16.6667C22.8728 16.6666 23.5027 16.8948 24.0022 17.3116C24.5017 17.7283 24.8391 18.3072 24.9556 18.9472C25.5151 18.6241 26.0929 18.3338 26.6861 18.0778C28.5389 17.2861 31.3139 16.85 33.8194 17.6361C35.1333 18.0528 36.4528 18.8306 37.4306 20.1556C38.3056 21.3361 38.7778 22.7722 38.8722 24.3861L38.8889 25V36.1111C38.8881 36.8191 38.617 37.5001 38.131 38.0149C37.645 38.5297 36.9807 38.8395 36.2739 38.881C35.5671 38.9225 34.8712 38.6926 34.3282 38.2382C33.7853 37.7837 33.4364 37.1392 33.3528 36.4361L33.3333 36.1111V25C33.3333 24.0833 33.1111 23.6556 32.9667 23.4583C32.7591 23.2007 32.4735 23.0175 32.1528 22.9361C31.1861 22.6306 29.7944 22.7917 28.8694 23.1861C27.4806 23.7806 26.2083 24.7139 25.3417 25.5778L25 25.9444V36.1111C24.9992 36.8191 24.7281 37.5001 24.2421 38.0149C23.7561 38.5297 23.0918 38.8395 22.385 38.881C21.6782 38.9225 20.9823 38.6926 20.4394 38.2382C19.8964 37.7837 19.5475 37.1392 19.4639 36.4361L19.4444 36.1111V19.4444C19.4444 18.7077 19.7371 18.0012 20.258 17.4803C20.779 16.9593 21.4855 16.6667 22.2222 16.6667ZM13.8889 11.1111C14.6256 11.1111 15.3321 11.4038 15.8531 11.9247C16.374 12.4456 16.6667 13.1522 16.6667 13.8889C16.6667 14.6256 16.374 15.3321 15.8531 15.8531C15.3321 16.374 14.6256 16.6667 13.8889 16.6667C13.1522 16.6667 12.4456 16.374 11.9247 15.8531C11.4038 15.3321 11.1111 14.6256 11.1111 13.8889C11.1111 13.1522 11.4038 12.4456 11.9247 11.9247C12.4456 11.4038 13.1522 11.1111 13.8889 11.1111Z" fill="#1F5B5A"/>
</svg>
